<svg xmlns="http://www.w3.org/2000/svg" viewBox="0 0 117.18 29.85"><defs><style>.cls-1{fill:#ffd633;}.cls-2{fill:#002c52;}</style></defs><title>logo_eDp_short_pos</title><g id="Layer_2" data-name="Layer 2"><g id="Capa_1" data-name="Capa 1"><rect class="cls-1" y="23.01" width="6.84" height="6.84" rx="2.35"/><rect class="cls-1" x="8.5" y="17.16" width="9.45" height="9.45" rx="2.93"/><path class="cls-1" d="M23.77,0H39.91A2.94,2.94,0,0,1,42.84,3V19.09A2.93,2.93,0,0,1,39.91,22H23.77a2.93,2.93,0,0,1-2.93-2.93V3A2.94,2.94,0,0,1,23.77,0Z"/><path class="cls-2" d="M49.66,2.29a2,2,0,0,1,2-2h5.17a6.28,6.28,0,0,1,6.57,6.63c0,3.9-2.6,6.47-6.57,6.47h-3.9v7.27a1.67,1.67,0,0,1-1.64,1.64,1.65,1.65,0,0,1-1.64-1.64Zm7.18,8c1.55,0,3.28-.65,3.28-3.34,0-2.17-1.14-3.5-3.28-3.5h-3.9v6.84Z"/><path class="cls-2" d="M65.57,10.62A4.51,4.51,0,0,1,70.18,6a12.28,12.28,0,0,1,2.33.24,1.57,1.57,0,0,1,1.27,1.52,1.46,1.46,0,0,1-1.52,1.49,1.79,1.79,0,0,1-.53-.06A6.35,6.35,0,0,0,70.18,9a1.44,1.44,0,0,0-1.42,1.42V20.71a1.6,1.6,0,1,1-3.19,0Z"/><path class="cls-2" d="M77.18,3.59A1.8,1.8,0,1,1,79,1.8,1.79,1.79,0,0,1,77.18,3.59Zm-1.61,4A1.62,1.62,0,0,1,77.18,6a1.57,1.57,0,0,1,1.58,1.61V20.71a1.57,1.57,0,0,1-1.58,1.61,1.62,1.62,0,0,1-1.61-1.61Z"/><path class="cls-2" d="M99.13,11.61A2.68,2.68,0,0,0,96.47,9a5,5,0,0,0-2.66.8v11a1.6,1.6,0,1,1-3.19,0v-9.5c0-1.8-1.18-2.26-2.54-2.26a9,9,0,0,0-2.79.43V20.71a1.6,1.6,0,1,1-3.19,0V8.79A2.06,2.06,0,0,1,83.4,6.9a13.63,13.63,0,0,1,5-.89,5.73,5.73,0,0,1,3.74,1.27A7.87,7.87,0,0,1,96.47,6a5.71,5.71,0,0,1,5.85,5.85v8.85a1.6,1.6,0,0,1-1.61,1.61,1.57,1.57,0,0,1-1.58-1.61Z"/><path class="cls-2" d="M108,15.67a4.5,4.5,0,0,0,.62,2.66A2.87,2.87,0,0,0,111,19.38a8.36,8.36,0,0,0,3.34-.8,1.56,1.56,0,0,1,.65-.16,1.53,1.53,0,0,1,1.52,1.46,1.48,1.48,0,0,1-.81,1.39,10.76,10.76,0,0,1-4.7,1.05,6.17,6.17,0,0,1-4.49-1.73,6.16,6.16,0,0,1-1.71-4.49V12.2a6.12,6.12,0,0,1,1.71-4.46A6.13,6.13,0,0,1,111,6a6,6,0,0,1,4.48,1.73,6.14,6.14,0,0,1,1.74,4.46v1.45a2,2,0,0,1-2,2Zm6-2.95c0-2.57-1-3.77-3-3.77s-3,1.17-3,3.77Z"/></g></g></svg>